<svg width="0" height="0" class="hidden">
  <symbol xmlns="http://www.w3.org/2000/svg" viewBox="0 96 960 960" id="burger">
    <path d="M120 816v-60h720v60H120Zm0-210v-60h720v60H120Zm0-210v-60h720v60H120Z"></path>
  </symbol>
  <symbol xmlns="http://www.w3.org/2000/svg" viewBox="0 96 960 960" id="cross">
    <path d="m249 849-42-42 231-231-231-231 42-42 231 231 231-231 42 42-231 231 231 231-42 42-231-231-231 231Z"></path>
  </symbol>
  <symbol xmlns="http://www.w3.org/2000/svg" viewBox="0 0 24 24" id="linkedin">
    <path d="M 5 3 C 3.895 3 3 3.895 3 5 L 3 19 C 3 20.105 3.895 21 5 21 L 19 21 C 20.105 21 21 20.105 21 19 L 21 5 C 21 3.895 20.105 3 19 3 L 5 3 z M 5 5 L 19 5 L 19 19 L 5 19 L 5 5 z M 7.7792969 6.3164062 C 6.9222969 6.3164062 6.4082031 6.8315781 6.4082031 7.5175781 C 6.4082031 8.2035781 6.9223594 8.7167969 7.6933594 8.7167969 C 8.5503594 8.7167969 9.0644531 8.2035781 9.0644531 7.5175781 C 9.0644531 6.8315781 8.5502969 6.3164062 7.7792969 6.3164062 z M 6.4765625 10 L 6.4765625 17 L 9 17 L 9 10 L 6.4765625 10 z M 11.082031 10 L 11.082031 17 L 13.605469 17 L 13.605469 13.173828 C 13.605469 12.034828 14.418109 11.871094 14.662109 11.871094 C 14.906109 11.871094 15.558594 12.115828 15.558594 13.173828 L 15.558594 17 L 18 17 L 18 13.173828 C 18 10.976828 17.023734 10 15.802734 10 C 14.581734 10 13.930469 10.406562 13.605469 10.976562 L 13.605469 10 L 11.082031 10 z"></path>
  </symbol>
  <symbol xmlns="http://www.w3.org/2000/svg" viewBox="0 96 960 960" id="mail">
    <path d="M140 896q-24 0-42-18t-18-42V316q0-24 18-42t42-18h680q24 0 42 18t18 42v520q0 24-18 42t-42 18H140Zm340-302L140 371v465h680V371L480 594Zm0-60 336-218H145l335 218ZM140 371v-55 520-465Z"></path>
  </symbol>
  <symbol xmlns="http://www.w3.org/2000/svg" viewBox="0 96 960 960" id="search">
    <path d="M796 935 533 672q-30 26-69.959 40.5T378 727q-108.162 0-183.081-75Q120 577 120 471t75-181q75-75 181.5-75t181 75Q632 365 632 471.15 632 514 618 554q-14 40-42 75l264 262-44 44ZM377 667q81.25 0 138.125-57.5T572 471q0-81-56.875-138.5T377 275q-82.083 0-139.542 57.5Q180 390 180 471t57.458 138.5Q294.917 667 377 667Z"></path>
  </symbol>
  <symbol xmlns="http://www.w3.org/2000/svg" viewBox="0 96 960 960" id="shoppingCart">
    <path d="M286.788 975Q257 975 236 953.788q-21-21.213-21-51Q215 873 236.212 852q21.213-21 51-21Q317 831 338 852.212q21 21.213 21 51Q359 933 337.788 954q-21.213 21-51 21Zm400 0Q657 975 636 953.788q-21-21.213-21-51Q615 873 636.212 852q21.213-21 51-21Q717 831 738 852.212q21 21.213 21 51Q759 933 737.788 954q-21.213 21-51 21ZM235 315l110 228h288l125-228H235Zm-30-60h589.074q22.964 0 34.945 21Q841 297 829 318L694 561q-11 19-28.559 30.5Q647.881 603 627 603H324l-56 104h491v60H277q-42 0-60.5-28t.5-63l64-118-152-322H51v-60h117l37 79Zm140 288h288-288Z"></path>
  </symbol>
  <symbol xmlns="http://www.w3.org/2000/svg" viewBox="0 96 960 960" id="shoppingCartPlus">
    <path d="M465 443V320H341v-60h124V137h60v123h123v60H525v123h-60ZM289.788 976Q260 976 239 954.788q-21-21.213-21-51Q218 874 239.212 853q21.213-21 51-21Q320 832 341 853.212q21 21.213 21 51Q362 934 340.788 955q-21.213 21-51 21Zm404 0Q664 976 643 954.788q-21-21.213-21-51Q622 874 643.212 853q21.213-21 51-21Q724 832 745 853.212q21 21.213 21 51Q766 934 744.788 955q-21.213 21-51 21ZM290 769q-42 0-61.5-34t.5-69l61-111-150-319H62v-60h116l170 364h292l156-280 52 28-153 277q-9.362 16.667-24.681 25.833Q655 600 634 600H334l-62 109h494v60H290Z"></path>
  </symbol>
  <symbol xmlns="http://www.w3.org/2000/svg" viewBox="0 0 24 24" id="whatsapp">
    <path d="M 12.011719 2 C 6.5057187 2 2.0234844 6.478375 2.0214844 11.984375 C 2.0204844 13.744375 2.4814687 15.462563 3.3554688 16.976562 L 2 22 L 7.2324219 20.763672 C 8.6914219 21.559672 10.333859 21.977516 12.005859 21.978516 L 12.009766 21.978516 C 17.514766 21.978516 21.995047 17.499141 21.998047 11.994141 C 22.000047 9.3251406 20.962172 6.8157344 19.076172 4.9277344 C 17.190172 3.0407344 14.683719 2.001 12.011719 2 z M 12.009766 4 C 14.145766 4.001 16.153109 4.8337969 17.662109 6.3417969 C 19.171109 7.8517969 20.000047 9.8581875 19.998047 11.992188 C 19.996047 16.396187 16.413812 19.978516 12.007812 19.978516 C 10.674812 19.977516 9.3544062 19.642812 8.1914062 19.007812 L 7.5175781 18.640625 L 6.7734375 18.816406 L 4.8046875 19.28125 L 5.2851562 17.496094 L 5.5019531 16.695312 L 5.0878906 15.976562 C 4.3898906 14.768562 4.0204844 13.387375 4.0214844 11.984375 C 4.0234844 7.582375 7.6067656 4 12.009766 4 z M 8.4765625 7.375 C 8.3095625 7.375 8.0395469 7.4375 7.8105469 7.6875 C 7.5815469 7.9365 6.9355469 8.5395781 6.9355469 9.7675781 C 6.9355469 10.995578 7.8300781 12.182609 7.9550781 12.349609 C 8.0790781 12.515609 9.68175 15.115234 12.21875 16.115234 C 14.32675 16.946234 14.754891 16.782234 15.212891 16.740234 C 15.670891 16.699234 16.690438 16.137687 16.898438 15.554688 C 17.106437 14.971687 17.106922 14.470187 17.044922 14.367188 C 16.982922 14.263188 16.816406 14.201172 16.566406 14.076172 C 16.317406 13.951172 15.090328 13.348625 14.861328 13.265625 C 14.632328 13.182625 14.464828 13.140625 14.298828 13.390625 C 14.132828 13.640625 13.655766 14.201187 13.509766 14.367188 C 13.363766 14.534188 13.21875 14.556641 12.96875 14.431641 C 12.71875 14.305641 11.914938 14.041406 10.960938 13.191406 C 10.218937 12.530406 9.7182656 11.714844 9.5722656 11.464844 C 9.4272656 11.215844 9.5585938 11.079078 9.6835938 10.955078 C 9.7955938 10.843078 9.9316406 10.663578 10.056641 10.517578 C 10.180641 10.371578 10.223641 10.267562 10.306641 10.101562 C 10.389641 9.9355625 10.347156 9.7890625 10.285156 9.6640625 C 10.223156 9.5390625 9.737625 8.3065 9.515625 7.8125 C 9.328625 7.3975 9.131125 7.3878594 8.953125 7.3808594 C 8.808125 7.3748594 8.6425625 7.375 8.4765625 7.375 z"></path>
  </symbol>
  <symbol xmlns="http://www.w3.org/2000/svg" viewBox="0 96 960 960" id="account">
    <path d="M222 801q63-44 125-67.5T480 710q71 0 133.5 23.5T739 801q44-54 62.5-109T820 576q0-145-97.5-242.5T480 236q-145 0-242.5 97.5T140 576q0 61 19 116t63 109Zm257.814-195Q422 606 382.5 566.314q-39.5-39.686-39.5-97.5t39.686-97.314q39.686-39.5 97.5-39.5t97.314 39.686q39.5 39.686 39.5 97.5T577.314 566.5q-39.686 39.5-97.5 39.5Zm.654 370Q398 976 325 944.5q-73-31.5-127.5-86t-86-127.266Q80 658.468 80 575.734T111.5 420.5q31.5-72.5 86-127t127.266-86q72.766-31.5 155.5-31.5T635.5 207.5q72.5 31.5 127 86t86 127.032q31.5 72.532 31.5 155T848.5 731q-31.5 73-86 127.5t-127.032 86q-72.532 31.5-155 31.5ZM480 916q55 0 107.5-16T691 844q-51-36-104-55t-107-19q-54 0-107 19t-104 55q51 40 103.5 56T480 916Zm0-370q34 0 55.5-21.5T557 469q0-34-21.5-55.5T480 392q-34 0-55.5 21.5T403 469q0 34 21.5 55.5T480 546Zm0-77Zm0 374Z"></path>
  </symbol>
</svg>